<svg id="Capa_1" enable-background="new 0 0 396.671 396.671" height="512" viewBox="0 0 396.671 396.671" width="512" xmlns="http://www.w3.org/2000/svg"><g><path d="m15.777 249.906 21.148 20.048 89.371-3.172 22.205-6.852-8.459-51.135s-19.583-26.9-21.148-28.38-38.066-7.317-38.066-7.317-32.779 5.879-39.631 9.305-25.42 67.503-25.42 67.503z" fill="#2f4859"/><path d="m250.813 249.103 32.102 17.68 90.893-11.547 16.918-23.22-19.202-46.144-42.084-22.205s-52.489-6.514-62.259 19.541c-9.769 26.052-16.368 65.895-16.368 65.895z" fill="#2f4859"/><path d="m396.268 204.777c-1.917-15.743-4.741-31.362-8.459-46.779-62.555-1.565-86.198-37.305-159.243-39.42s-109.799 45.933-109.799 45.933c-39.416-3.227-78.692 7.705-110.772 30.833-5.059 3.619-8.04 9.472-7.994 15.692v35.655c-.038 9.056 6.284 16.896 15.142 18.779l21.613 4.652s-29.607-84.041 42.592-88.313c70.126-4.23 50.755 85.479 46.779 85.141h156.79c-33.117-77.782 33.117-88.271 33.117-88.271 70.422-3.68 57.776 76.724 57.776 76.724 21.908-7.019 24.023-32.227 22.458-50.626z" fill="#2d93ba"/><path d="m22.925 197.333-15.522 6.64c-.85.344-1.449 1.12-1.565 2.03l-.888 6.048c-.234 1.429.735 2.777 2.165 3.011.151.025.304.036.458.034h13.746c1.472 0 2.665-1.193 2.665-2.665.053-4.009.871-7.972 2.411-11.674.566-1.333-.056-2.873-1.389-3.439-.667-.28-1.419-.276-2.081.015z" fill="#ebf0f3"/><path d="m325.211 185.871c-25.485-.07-46.201 20.533-46.271 46.018s20.533 46.201 46.018 46.271c25.468.07 46.177-20.507 46.271-45.975.094-25.485-20.49-46.22-45.975-46.314-.014 0-.028 0-.043 0z" fill="#3a556a"/><path d="m359.471 232.185c-.094 19.014-15.584 34.352-34.598 34.259-19.014-.094-34.352-15.584-34.259-34.598.094-19.014 15.583-34.352 34.597-34.259 18.991.07 34.33 15.521 34.26 34.512z" fill="#e1e6e9"/><path d="m356.426 228.336h-22.459l15.903-15.903-5.245-5.202-15.861 15.861v-22.459h-7.402v22.459l-15.861-15.861-5.245 5.202 15.861 15.903h-22.417v7.402h22.417l-15.861 15.861 5.245 5.202 15.861-15.861v22.459h7.402v-22.459l15.861 15.861 5.245-5.202-15.903-15.861h22.459zm-23.813.549v6.26l-4.23 4.23h-6.26l-4.23-4.23v-6.26l4.23-4.23h6.26z" fill="#3a556a"/><path d="m335.955 232.185c-.071 6.026-5.013 10.854-11.04 10.783-6.026-.071-10.854-5.013-10.783-11.04s5.013-10.854 11.04-10.783c.013 0 .027 0 .04.001 6 .115 10.79 5.037 10.743 11.039z" fill="#ebf0f3"/><path d="m325.211 197.587c-19.014-.093-34.504 15.245-34.597 34.259s15.245 34.504 34.259 34.597 34.503-15.245 34.597-34.259c.071-19.004-15.254-34.481-34.259-34.597zm0 64.205c-16.514.163-30.033-13.093-30.196-29.607s13.093-30.033 29.607-30.196 30.033 13.093 30.196 29.607c.002.196.002.393 0 .589-.16 16.284-13.322 29.446-29.607 29.607z" fill="#e1e6e9"/><path d="m80.827 185.871c-25.485 0-46.144 20.66-46.144 46.145s20.66 46.144 46.145 46.144c25.419 0 46.051-20.557 46.144-45.975.117-25.461-20.429-46.196-45.89-46.313-.085-.001-.17-.001-.255-.001z" fill="#3a556a"/><path d="m115.256 232.185c0 19.014-15.414 34.429-34.429 34.429s-34.429-15.414-34.429-34.429c0-19.014 15.414-34.429 34.429-34.429 19.015 0 34.429 15.414 34.429 34.429z" fill="#e1e6e9"/><path d="m112.168 228.336h-22.416l15.861-15.903-5.245-5.202-15.861 15.861v-22.459h-7.402v22.459l-15.86-15.862-5.245 5.203 15.903 15.903h-22.459v7.402h22.459l-15.903 15.86 5.245 5.202 15.861-15.861v22.459h7.402v-22.458l15.861 15.861 5.245-5.202-15.861-15.861h22.417zm-23.812.55v6.26l-4.23 4.23h-6.429l-4.23-4.23v-6.26l4.23-4.23h6.429z" fill="#3a556a"/><path d="m91.697 232.185c.023 6.027-4.843 10.931-10.87 10.954s-10.931-4.843-10.954-10.87 4.843-10.931 10.87-10.954h.084c5.994.023 10.847 4.876 10.87 10.87z" fill="#ebf0f3"/><path d="m80.827 197.587c-19.014 0-34.428 15.415-34.428 34.429s15.415 34.428 34.429 34.428c18.948 0 34.335-15.311 34.428-34.259.093-19.014-15.245-34.504-34.259-34.597-.056-.001-.113-.001-.17-.001zm0 64.331c-16.515.023-29.922-13.346-29.945-29.861s13.346-29.922 29.861-29.945 29.922 13.346 29.945 29.861v.211c-.185 16.373-13.487 29.562-29.861 29.607z" fill="#e1e6e9"/><path d="m250.813 250.16h-97.914l-.804-.381-.296-.677c10.236-45.299-16.918-80.362-16.918-80.785-.409-.384-.429-1.026-.045-1.435.015-.016.03-.031.045-.046.411-.403 1.069-.403 1.48 0 .296.381 27.492 35.613 17.806 81.25h95.884l31.891-86.748c.187-.561.793-.864 1.353-.677.561.187.864.793.677 1.353l-32.187 87.425c-.14.422-.529.709-.972.721z" fill="#1c75a1"/><path d="m291.756 142.645c-23.339-7.567-47.46-12.462-71.903-14.592-36.966-3.68-73.637 22.29-88.017 33.837-1.265 1.036-1.451 2.902-.414 4.166.606.74 1.532 1.142 2.487 1.078l147.739-4.23c1.072-.005 2.064-.565 2.622-1.48l8.967-14.761c.743-1.404.207-3.144-1.197-3.887-.093-.049-.188-.093-.284-.131z" fill="#3a556a"/><path d="m387.851 157.998-15.353 7.867c-2.887 1.485-4.024 5.03-2.538 7.917.209.406.465.787.762 1.134l25.377 29.861c-1.073-15.843-3.838-31.525-8.248-46.779z" fill="#ebf0f3"/></g></svg>