<svg id="Layer_1" enable-background="new 0 0 256 256" height="512" viewBox="0 0 256 256" width="512" xmlns="http://www.w3.org/2000/svg"><g><g><g><path d="m167.873 122.473h-160.094c-2.639 0-4.779-2.14-4.779-4.779v-109.915c0-2.639 2.14-4.779 4.779-4.779h160.094c2.639 0 4.779 2.14 4.779 4.779v109.915c0 2.639-2.14 4.779-4.779 4.779z" fill="#4671c6"/></g><g><path d="m13.295 111.163v-96.853c0-1.254 1.016-2.27 2.27-2.27h144.523c1.254 0 2.27 1.016 2.27 2.27v96.853c0 1.254-1.016 2.27-2.27 2.27h-144.523c-1.254 0-2.27-1.016-2.27-2.27z" fill="#a4c9ff"/></g><g><path d="m136.81 98.853h-97.968c-1.104 0-2-.896-2-2v-64.25c0-3.299 2.684-5.982 5.982-5.982h90.003c3.299 0 5.983 2.684 5.983 5.982v64.25c0 1.104-.895 2-2 2zm-95.968-4h93.968v-62.25c0-1.093-.89-1.982-1.983-1.982h-90.003c-1.093 0-1.982.889-1.982 1.982z" fill="#3762cc"/></g><g><path d="m167.873 124.473h-160.094c-3.738 0-6.779-3.041-6.779-6.779v-109.915c0-3.738 3.041-6.779 6.779-6.779h160.094c3.738 0 6.779 3.041 6.779 6.779v109.916c0 3.737-3.041 6.778-6.779 6.778zm-160.094-119.473c-1.532 0-2.779 1.247-2.779 2.779v109.916c0 1.532 1.247 2.779 2.779 2.779h160.094c1.532 0 2.779-1.247 2.779-2.779v-109.916c0-1.532-1.247-2.779-2.779-2.779z" fill="#3762cc"/></g><g><path d="m160.087 115.433h-144.523c-2.354 0-4.27-1.916-4.27-4.27v-96.853c0-2.354 1.916-4.27 4.27-4.27h144.523c2.354 0 4.27 1.916 4.27 4.27v96.853c0 2.355-1.916 4.27-4.27 4.27zm-144.523-101.393c-.149 0-.27.121-.27.27v96.853c0 .149.121.27.27.27h144.523c.148 0 .27-.121.27-.27v-96.853c0-.149-.121-.27-.27-.27z" fill="#3762cc"/></g><g><path d="m32.072 94.032v5.642c0 .88.713 1.593 1.593 1.593h108.322c.88 0 1.593-.713 1.593-1.593v-5.642c0-.88-.713-1.593-1.593-1.593h-108.322c-.88 0-1.593.713-1.593 1.593z" fill="#f9a7a7"/></g><g><g><path d="m129.283 101.267-1.07 11.649h-15.459l.509-11.649h-6.378l-.509 11.649h-15.364v-11.649h-6.372v11.649h-15.365l-.509-11.649h-6.378l.509 11.649h-15.458l-1.07-11.649h-6.399l3.122 33.979c0 .004-.001.008-.001.013 0 .093.02.181.027.272l4.153 45.21c.152 1.653 1.541 2.895 3.169 2.895.098 0 .196-.004.295-.014 1.752-.161 3.042-1.712 2.881-3.464l-.613-6.668h12.538l.315 7.224c.075 1.71 1.485 3.047 3.181 3.047.047 0 .094-.001.141-.003 1.758-.077 3.121-1.564 3.044-3.322l-.303-6.946h12.72v7.127c0 1.76 1.427 3.186 3.186 3.186s3.186-1.426 3.186-3.186v-7.127h12.72l-.303 6.946c-.077 1.758 1.286 3.245 3.044 3.322.047.002.094.003.141.003 1.696 0 3.106-1.336 3.181-3.047l.315-7.224h12.538l-.613 6.668c-.161 1.752 1.129 3.303 2.881 3.464.099.009.197.014.295.014 1.628 0 3.017-1.242 3.169-2.895l7.301-79.474zm-81.259 18.02h15.151l.558 12.785h-14.534zm1.76 19.157h14.228l.487 11.151h-13.69zm2.634 28.674-1.024-11.151h13.383l.487 11.151zm32.222 0h-12.998l-.487-11.151h13.485zm0-17.523h-13.763l-.487-11.151h14.25zm0-17.523h-14.528l-.558-12.785h15.086zm19.37 35.046h-12.998v-11.151h13.485zm.765-17.523h-13.763v-11.151h14.25zm.765-17.523h-14.528v-12.785h15.087zm17.693 35.046h-12.846l.487-11.151h13.383zm1.61-17.523h-13.69l.487-11.151h14.228zm1.61-17.523h-14.535l.558-12.785h15.151z" fill="#e0ebfc"/></g></g><g><path d="m141.987 103.267h-108.322c-1.981 0-3.593-1.612-3.593-3.593v-5.642c0-1.981 1.612-3.593 3.593-3.593h108.322c1.981 0 3.593 1.612 3.593 3.593v5.642c0 1.981-1.612 3.593-3.593 3.593zm-107.915-4h107.508v-4.828h-107.508zm107.915-4.828h.01z" fill="#3762cc"/></g><g><g><path d="m87.826 185.803c-2.859 0-5.186-2.327-5.186-5.186v-5.127h-8.631l.212 4.858c.061 1.384-.421 2.708-1.357 3.73s-2.213 1.617-3.598 1.677c-.064.003-.147.005-.228.005-2.783 0-5.057-2.179-5.179-4.959l-.232-5.312h-8.432l.412 4.484c.127 1.379-.292 2.726-1.177 3.791s-2.134 1.721-3.513 1.848c-.156.015-.318.022-.478.022-2.695 0-4.914-2.025-5.16-4.711l-4.153-45.209c-.018-.13-.031-.254-.035-.38l-3.113-33.884c-.051-.56.135-1.116.514-1.531s.916-.652 1.478-.652h6.399c1.034 0 1.897.788 1.992 1.817l.903 9.832h11.544l-.417-9.561c-.024-.545.176-1.076.553-1.47.377-.395.899-.617 1.445-.617h6.378c1.071 0 1.951.843 1.998 1.913l.425 9.736h11.45v-9.648c0-1.104.896-2 2-2h6.372c1.104 0 2 .896 2 2v9.648h11.45l.425-9.736c.047-1.069.927-1.913 1.998-1.913h6.378c.545 0 1.067.223 1.445.617.377.394.577.925.553 1.47l-.417 9.561h11.544l.903-9.832c.095-1.029.958-1.817 1.992-1.817h6.399c.563 0 1.099.237 1.478.652.379.416.565.971.514 1.531l-7.301 79.474c-.261 2.845-2.752 4.956-5.643 4.689-1.375-.126-2.623-.782-3.508-1.847s-1.304-2.412-1.177-3.791l.412-4.484h-8.432l-.232 5.312c-.125 2.862-2.521 5.086-5.423 4.954-1.368-.06-2.646-.655-3.582-1.677s-1.418-2.346-1.357-3.73l.212-4.858h-8.631v5.127c0 2.857-2.327 5.184-5.186 5.184zm-15.906-14.313h12.72c1.104 0 2 .896 2 2v7.127c0 .654.532 1.186 1.186 1.186s1.186-.532 1.186-1.186v-7.127c0-1.104.896-2 2-2h12.72c.545 0 1.067.223 1.445.617.377.394.577.925.553 1.47l-.303 6.946c-.014.316.096.619.31.853s.506.37.823.384h.003c.688 0 1.206-.498 1.233-1.133l.315-7.224c.047-1.069.927-1.913 1.998-1.913h12.538c.562 0 1.099.237 1.478.652.379.416.565.971.514 1.531l-.612 6.667c-.029.315.066.623.269.867s.488.394.803.422c.041.004.077.005.112.005.604 0 1.122-.473 1.177-1.078l7.101-77.291h-2.382l-.903 9.832c-.095 1.029-.958 1.817-1.992 1.817h-15.458c-.545 0-1.067-.223-1.445-.617-.377-.394-.577-.925-.553-1.47l.417-9.561h-2.373l-.425 9.736c-.047 1.069-.927 1.913-1.998 1.913h-15.365c-1.104 0-2-.896-2-2v-9.648h-2.372v9.648c0 1.104-.896 2-2 2h-15.365c-1.071 0-1.951-.843-1.998-1.913l-.425-9.736h-2.374l.417 9.561c.024.545-.176 1.076-.553 1.47-.377.395-.899.617-1.445.617h-15.458c-1.034 0-1.897-.788-1.992-1.817l-.903-9.832h-2.382l2.921 31.796c.004.043.006.087.008.131l.019.156 4.153 45.208c.058.64.636 1.131 1.285 1.073.32-.029.605-.179.808-.423s.298-.551.269-.867l-.612-6.667c-.051-.56.135-1.116.514-1.531s.916-.652 1.478-.652h12.538c1.071 0 1.951.843 1.998 1.913l.315 7.224c.028.636.547 1.134 1.183 1.134.371-.015.663-.151.877-.385.214-.233.324-.536.31-.852l-.303-6.946c-.024-.545.176-1.076.553-1.47.377-.395.899-.617 1.444-.617zm-26.837-36.358v.005c0-.002 0-.003 0-.005zm78.15 33.986h-12.846c-.545 0-1.067-.223-1.445-.617-.377-.394-.577-.925-.553-1.47l.487-11.151c.047-1.069.927-1.913 1.998-1.913h13.383c.563 0 1.099.237 1.478.652.379.416.565.971.514 1.531l-1.024 11.151c-.095 1.029-.958 1.817-1.992 1.817zm-10.756-4h8.932l.657-7.151h-9.276zm-8.467 4h-12.998c-1.104 0-2-.896-2-2v-11.151c0-1.104.896-2 2-2h13.485c.545 0 1.067.223 1.445.617.377.394.577.925.553 1.47l-.487 11.151c-.047 1.069-.927 1.913-1.998 1.913zm-10.998-4h9.083l.313-7.151h-9.396zm-8.372 4h-12.998c-1.071 0-1.951-.843-1.998-1.913l-.487-11.151c-.024-.545.176-1.076.553-1.47.377-.395.899-.617 1.445-.617h13.485c1.104 0 2 .896 2 2v11.151c0 1.104-.895 2-2 2zm-11.084-4h9.084v-7.151h-9.396zm-8.292 4h-12.846c-1.034 0-1.897-.788-1.992-1.817l-1.024-11.151c-.051-.56.135-1.116.514-1.531s.916-.652 1.478-.652h13.383c1.071 0 1.951.843 1.998 1.913l.487 11.151c.024.545-.176 1.076-.553 1.47-.378.394-.9.617-1.445.617zm-11.021-4h8.931l-.312-7.151h-9.276zm70.6-13.523h-13.69c-.545 0-1.067-.223-1.445-.617-.377-.394-.577-.925-.553-1.47l.487-11.151c.047-1.069.927-1.913 1.998-1.913h14.228c.562 0 1.099.237 1.478.652.379.416.565.971.514 1.531l-1.024 11.151c-.096 1.03-.959 1.817-1.993 1.817zm-11.601-4h9.776l.657-7.151h-10.121zm-8.467 4h-13.763c-1.104 0-2-.896-2-2v-11.151c0-1.104.896-2 2-2h14.25c.545 0 1.067.223 1.445.617.377.394.577.925.553 1.47l-.487 11.151c-.047 1.07-.927 1.913-1.998 1.913zm-11.763-4h9.849l.312-7.151h-10.161zm-8.372 4h-13.764c-1.071 0-1.951-.843-1.998-1.913l-.487-11.151c-.024-.545.176-1.076.553-1.47.377-.395.899-.617 1.445-.617h14.25c1.104 0 2 .896 2 2v11.151c.001 1.105-.894 2-1.999 2zm-11.849-4h9.849v-7.151h-10.161zm-8.292 4h-13.69c-1.034 0-1.897-.788-1.992-1.817l-1.024-11.151c-.051-.56.135-1.116.514-1.531s.915-.652 1.478-.652h14.228c1.071 0 1.951.843 1.998 1.913l.487 11.151c.024.545-.176 1.076-.553 1.47-.379.395-.901.617-1.446.617zm-11.866-4h9.776l-.313-7.151h-10.119zm73.82-13.523h-14.535c-.545 0-1.067-.223-1.445-.617-.377-.394-.577-.925-.553-1.47l.558-12.785c.047-1.069.927-1.913 1.998-1.913h15.151c.562 0 1.099.237 1.478.652.379.416.565.971.514 1.531l-1.174 12.785c-.095 1.03-.958 1.817-1.992 1.817zm-12.446-4h10.621l.807-8.785h-11.045zm-8.467 4h-14.528c-1.104 0-2-.896-2-2v-12.785c0-1.104.896-2 2-2h15.086c.545 0 1.067.223 1.445.617.377.394.577.925.553 1.47l-.558 12.785c-.047 1.07-.927 1.913-1.998 1.913zm-12.528-4h10.614l.383-8.785h-10.997zm-8.372 4h-14.529c-1.071 0-1.951-.843-1.998-1.913l-.558-12.785c-.024-.545.176-1.076.553-1.47.377-.395.899-.617 1.445-.617h15.087c1.104 0 2 .896 2 2v12.785c0 1.105-.895 2-2 2zm-12.614-4h10.614v-8.785h-10.997zm-8.292 4h-14.535c-1.034 0-1.897-.788-1.992-1.817l-1.174-12.785c-.051-.56.135-1.116.514-1.531s.916-.652 1.478-.652h15.151c1.071 0 1.951.843 1.998 1.913l.558 12.785c.024.545-.176 1.076-.553 1.47-.378.395-.9.617-1.445.617zm-12.711-4h10.621l-.383-8.785h-11.045z" fill="#3762cc"/></g></g></g><g><g><path d="m204.828 172.192s-.446-1.802-1.288-4.899c-.435-1.599-2.084-2.54-3.683-2.107-1.599.435-2.542 2.083-2.107 3.683.815 2.997 1.249 4.747 1.254 4.766.338 1.366 1.563 2.279 2.91 2.279.239 0 .481-.029.723-.088 1.608-.4 2.589-2.026 2.191-3.634z" fill="#ffea92"/></g><g><path d="m138.517 91.854c-1.382-.914-3.244-.532-4.156.851-1.719 2.603-3.43 5.655-5.086 9.073-.723 1.491-.1 3.285 1.392 4.008.421.204.867.301 1.306.301 1.113 0 2.184-.623 2.702-1.692 1.541-3.18 3.12-6.001 4.693-8.384.912-1.383.531-3.244-.851-4.157z" fill="#ffea92"/></g><g><path d="m128.331 111.335c-1.548-.584-3.281.196-3.867 1.745-1.126 2.979-2.253 6.206-3.35 9.593-.51 1.576.354 3.268 1.93 3.778.307.1.618.147.924.147 1.266 0 2.443-.808 2.854-2.077 1.067-3.295 2.162-6.43 3.254-9.319.586-1.55-.195-3.281-1.745-3.867z" fill="#ffea92"/></g><g><path d="m108.413 190.893c.177.031.354.046.527.046 1.427 0 2.693-1.022 2.951-2.477.597-3.37 1.197-6.642 1.799-9.82.308-1.628-.761-3.198-2.389-3.506-1.628-.306-3.197.761-3.506 2.389-.606 3.201-1.21 6.497-1.812 9.89-.289 1.631.799 3.189 2.43 3.478z" fill="#ffea92"/></g><g><path d="m115.845 153.569c-1.616-.363-3.221.654-3.584 2.27-.713 3.177-1.426 6.488-2.121 9.844-.335 1.622.708 3.209 2.331 3.545.205.042.409.063.61.063 1.393 0 2.642-.975 2.935-2.393.687-3.322 1.393-6.601 2.099-9.744.363-1.617-.654-3.222-2.27-3.585z" fill="#ffea92"/></g><g><path d="m121.322 132.222c-1.598-.444-3.25.489-3.695 2.085-.864 3.104-1.731 6.388-2.577 9.761-.403 1.607.574 3.236 2.181 3.64.245.061.49.09.732.09 1.343 0 2.566-.909 2.908-2.271.833-3.323 1.687-6.556 2.537-9.61.444-1.596-.49-3.25-2.086-3.695z" fill="#ffea92"/></g><g><path d="m193.171 134.545c-1.195-3.271-2.415-6.453-3.626-9.457-.619-1.537-2.367-2.281-3.904-1.661-1.537.619-2.28 2.367-1.661 3.904 1.186 2.943 2.382 6.063 3.555 9.272.444 1.217 1.594 1.972 2.818 1.972.342 0 .689-.059 1.029-.183 1.557-.569 2.357-2.291 1.789-3.847z" fill="#ffea92"/></g><g><path d="m154.597 79.836c-3.921-.454-7.799.638-11.454 3.231-1.352.959-1.669 2.832-.711 4.183.585.825 1.51 1.265 2.449 1.264.601 0 1.207-.18 1.733-.553 2.459-1.745 4.827-2.452 7.29-2.165 1.646.193 3.135-.988 3.326-2.634.192-1.645-.987-3.134-2.633-3.326z" fill="#ffea92"/></g><g><path d="m184.708 113.893c-1.517-3.261-3.057-6.334-4.579-9.136-.792-1.456-2.612-1.994-4.068-1.204-1.456.791-1.995 2.612-1.204 4.068 1.462 2.692 2.946 5.653 4.411 8.802.508 1.093 1.591 1.735 2.722 1.735.423 0 .854-.09 1.263-.28 1.502-.699 2.154-2.483 1.455-3.985z" fill="#ffea92"/></g><g><path d="m200.19 155.654c-.983-3.243-2.007-6.485-3.044-9.639-.517-1.574-2.215-2.431-3.787-1.912-1.574.518-2.43 2.213-1.912 3.787 1.022 3.108 2.032 6.306 3.001 9.504.393 1.296 1.583 2.131 2.87 2.131.288 0 .581-.042.871-.13 1.586-.48 2.481-2.155 2.001-3.741z" fill="#ffea92"/></g><g><path d="m166.712 86.148c-1.213-1.128-3.111-1.061-4.24.153-1.129 1.213-1.06 3.111.153 4.24 1.996 1.857 4.053 4.263 6.113 7.149.585.82 1.508 1.257 2.444 1.257.603 0 1.212-.181 1.74-.558 1.349-.962 1.662-2.836.699-4.185-2.293-3.213-4.618-5.924-6.909-8.056z" fill="#ffea92"/></g><g><path d="m100.758 196.861c-1.581 0-2.537 1.749-1.684 3.08l7.663 11.948c.792 1.234 2.598 1.225 3.378-.017l7.496-11.948c.836-1.332-.122-3.063-1.694-3.063-12.689 0-2.402 0-15.159 0z" fill="#ffea92"/></g></g><g><g><path d="m244.112 177.854c-8.619-12.017-22.696-19.854-38.613-19.854-26.164 0-47.499 21.222-47.499 47.5 0 .007.001.014.001.021.015 26.029 21.096 47.479 47.498 47.479 38.78 0 60.897-44.077 38.613-75.146z" fill="#f9a7a7"/></g><g><path d="m167.814 235.888c-.574 0-1.145-.246-1.54-.723-.706-.85-.588-2.111.262-2.816 8.024-6.66 12.626-16.446 12.626-26.849 0-10.377-4.583-20.148-12.575-26.807-.849-.707-.963-1.968-.256-2.817.708-.849 1.969-.963 2.817-.256 8.906 7.421 14.014 18.312 14.014 29.88 0 11.597-5.129 22.505-14.071 29.927-.374.31-.826.461-1.277.461z" fill="#3762cc"/></g><g><path d="m237.109 242.595c-.204 0-.412-.031-.616-.098-16.092-5.208-26.903-20.076-26.903-36.998 0-16.886 10.781-31.744 26.828-36.973 1.048-.345 2.179.231 2.521 1.282s-.231 2.179-1.282 2.521c-14.396 4.691-24.067 18.021-24.067 33.17 0 15.182 9.699 28.521 24.135 33.192 1.051.34 1.627 1.468 1.287 2.519-.274.847-1.059 1.385-1.903 1.385z" fill="#3762cc"/></g><g><path d="m204.579 254.562c-.669 0-1.323-.336-1.702-.946-7.963-12.837-12.348-29.924-12.348-48.115 0-18.218 4.396-35.324 12.379-48.166.583-.939 1.817-1.226 2.754-.643.938.583 1.226 1.816.643 2.754-7.594 12.217-11.777 28.573-11.777 46.055 0 17.456 4.172 33.794 11.748 46.007.582.938.293 2.171-.646 2.754-.327.202-.691.3-1.051.3z" fill="#3762cc"/></g><g><path d="m205.5 213.753c-16.883 0-33.36-2.144-47.65-6.201-1.063-.301-1.679-1.407-1.377-2.47.301-1.063 1.405-1.68 2.47-1.378 13.939 3.957 30.039 6.048 46.558 6.048 16.571 0 32.714-2.104 46.685-6.084 1.065-.303 2.168.313 2.471 1.375s-.313 2.168-1.375 2.471c-14.324 4.083-30.846 6.239-47.782 6.239z" fill="#3762cc"/></g><g><path d="m205.5 255c-27.277 0-49.482-22.196-49.499-49.478-.001-27.316 22.205-49.522 49.499-49.522 15.905 0 30.947 7.734 40.238 20.688 10.815 15.079 12.224 34.791 3.676 51.441-8.639 16.826-25.055 26.871-43.914 26.871zm0-95c-25.088 0-45.5 20.411-45.5 45.5.016 25.098 20.426 45.5 45.5 45.5 17.33 0 32.416-9.232 40.355-24.697 7.86-15.311 6.57-33.429-3.367-47.284-8.542-11.909-22.369-19.019-36.988-19.019z" fill="#3762cc"/></g></g></g></svg>