<svg id="Capa_1" enable-background="new 0 0 512 512" height="512" viewBox="0 0 512 512" width="512" xmlns="http://www.w3.org/2000/svg"><g><g><g><path d="m144.031 422.908c-30.428 0-60.606-6.428-83.151-18.728-21.479-11.717-35.771-28.341-41.332-48.077-11.106-39.412 13.278-88.761 62.121-125.722 6.607-4.998 16.016-3.696 21.013 2.91 4.999 6.606 3.696 16.014-2.909 21.013-18.795 14.222-34.192 31.513-43.357 48.686-8.848 16.58-11.611 32.132-7.992 44.976 3.368 11.953 12.393 22.005 26.823 29.876 30.007 16.369 79.188 19.854 116.938 8.283 81.213-24.891 103.872-120.703 104.797-124.769 1.838-8.078 9.879-13.138 17.953-11.3 8.078 1.837 13.138 9.875 11.3 17.953-.734 3.232-7.725 32.5-26.53 64.465-24.454 41.562-58.593 70.032-98.729 82.333-17.775 5.45-37.415 8.101-56.945 8.101z" fill="#f3eae6"/></g><path d="m382.506 504.5h-230.807c-19.865 0-36.72-14.578-39.583-34.236l-40.013-274.764h390l-40.014 274.764c-2.864 19.658-19.718 34.236-39.583 34.236z" fill="#aca6d6"/><path d="m462.103 165.5h-390c-8.284 0-15 6.716-15 15 0 8.284 6.716 15 15 15h390c8.284 0 15-6.716 15-15 0-8.284-6.716-15-15-15z" fill="#f3eae6"/><path d="m462.103 165.5h-30c8.284 0 15 6.716 15 15s-6.716 15-15 15h30c8.284 0 15-6.716 15-15s-6.716-15-15-15z" fill="#e1d3ce"/><path d="m429.918 195.5c-3.428 21.521-6.856 43.042-10.284 64.563-21.126 132.625-135.761 230.063-270.058 229.545-9.292-.036-18.585-.072-27.877-.108-.417 0-.83-.016-1.243-.028 7.379 9.221 18.71 15.028 31.243 15.028h230.807c19.865 0 36.72-14.578 39.582-34.235l40.015-274.765z" fill="#978ecb"/><g><path d="m48.423 347.968c3.368 11.953 12.393 22.005 26.823 29.876 30.007 16.369 79.188 19.854 116.938 8.283 81.213-24.891 103.872-120.703 104.797-124.769 1.838-8.078 9.879-13.138 17.953-11.3 8.078 1.837 13.138 9.875 11.3 17.953-.734 3.232-7.725 32.5-26.53 64.465-24.454 41.562-58.593 70.032-98.729 82.333-17.774 5.448-37.414 8.099-56.944 8.099-30.428 0-60.606-6.428-83.151-18.728-21.479-11.717-35.771-28.341-41.332-48.077z" fill="#f3eae6"/></g><circle cx="311.629" cy="271.254" fill="#978ecb" r="34.872"/><path d="m274.202 194.487c0 13.914-11.28 25.194-25.194 25.194-13.914 0-25.194-11.28-25.194-25.194v82.5c0 18.056-14.637 32.694-32.694 32.694-18.056 0-32.694-14.638-32.694-32.694v-105.487c0-3.314-2.686-6-6-6h-68.167c4.331-55.029 50.359-98.333 106.5-98.333 29.21 0 55.678 11.728 74.964 30.726 9.302-3.674 19.427-5.715 30.036-5.715 27.766 0 52.284 13.843 67.077 34.99 8.922-10.618 22.213-17.441 37.11-17.681 27.679-.446 50.333 22.631 50.333 50.314v5.699h-170.077c-3.314 0-6 2.686-6 6z" fill="#b3dafe"/><g fill="#8ac9fe"><path d="m206.095 182.096c-7.102 1.247-12.281 7.416-12.281 14.626v80.266c0 12.647-7.186 23.609-17.694 29.047 4.494 2.325 9.591 3.647 15 3.647 18.056 0 32.694-14.638 32.694-32.694v-80.319c0-9.229-8.329-16.223-17.419-14.626-.1.017-.2.035-.3.053z"/><path d="m274.202 172.125h-11.735c-10.088 0-18.265 8.178-18.265 18.265v4.097c0 8.294-4.009 15.65-10.194 20.241 4.191 3.11 9.38 4.953 15 4.953 13.239 0 24.085-10.213 25.107-23.189.057-.901.087-1.775.087-2.609z"/></g><g fill="#8ac9fe"><path d="m160.76 82.166c24.297 0 46.697 8.114 64.644 21.778 6.482 4.935 14.816 6.895 22.772 5.143 5.663-1.247 11.545-1.909 17.584-1.909 19.935 0 38.197 7.136 52.386 18.988 8.495 7.095 20.523 8.539 30.415 3.574 4.038-2.027 8.392-3.519 12.968-4.383-14.906-20.122-38.806-33.179-65.77-33.179-10.608 0-20.734 2.041-30.036 5.715-19.286-18.999-45.754-30.727-74.964-30.727-23.175 0-44.622 7.385-62.128 19.921 10.141-3.193 20.933-4.921 32.129-4.921z"/><path d="m400.759 109.48c-14.089 0-26.791 5.896-35.807 15.342 1.905-.223 3.842-.342 5.807-.342 24.449 0 44.745 17.723 48.777 41.02h30.742v-6.5c.001-27.349-22.17-49.52-49.519-49.52z"/></g><g fill="#b3dafe"><circle cx="471.768" cy="30.835" r="23.335"/><circle cx="322.103" cy="45.5" r="18"/></g></g><path d="m393.86 74.546c4.142 0 7.5-3.358 7.5-7.5s-3.358-7.5-7.5-7.5-7.5 3.358-7.5 7.5 3.358 7.5 7.5 7.5zm77.909-74.546c-17.002 0-30.835 13.832-30.835 30.835s13.832 30.835 30.835 30.835c17.002 0 30.835-13.832 30.835-30.835s-13.833-30.835-30.835-30.835zm0 46.67c-8.731 0-15.835-7.104-15.835-15.835s7.104-15.835 15.835-15.835 15.835 7.104 15.835 15.835-7.104 15.835-15.835 15.835zm-149.665 24.33c14.061 0 25.5-11.439 25.5-25.5s-11.44-25.5-25.5-25.5-25.5 11.44-25.5 25.5 11.439 25.5 25.5 25.5zm0-36c5.79 0 10.5 4.71 10.5 10.5s-4.71 10.5-10.5 10.5c-5.789 0-10.5-4.71-10.5-10.5s4.71-10.5 10.5-10.5zm135.647 123c-.472-14.813-6.749-29.17-17.388-39.639-10.978-10.802-25.344-16.623-40.538-16.373-13.439.217-26.26 5.174-36.306 13.844-16.888-19.651-41.619-31.154-67.759-31.154-9.66 0-19.14 1.54-28.249 4.585-21.071-19.122-48.14-29.596-76.751-29.596-28.954 0-56.578 10.844-77.782 30.535-19.38 17.996-31.798 41.861-35.432 67.798h-5.443c-12.407 0-22.5 10.094-22.5 22.5 0 10.098 6.687 18.663 15.866 21.501l4.134 28.38c-21.915 18.064-38.864 38.926-49.134 60.559-11.115 23.413-13.928 46.649-8.137 67.193 6.119 21.723 21.665 39.922 44.956 52.63 11.771 6.426 25.462 11.365 40.737 14.74l6.675 45.837c3.372 23.18 23.578 40.66 47.002 40.66h230.81c23.423 0 43.63-17.48 47.002-40.659l39.221-269.339c9.18-2.837 15.87-11.402 15.87-21.502-.001-14.659-12.952-24.007-26.854-22.5zm-334.566-56.807c18.421-17.105 42.42-26.526 67.575-26.526 26.246 0 50.999 10.146 69.702 28.569 2.114 2.084 5.258 2.723 8.019 1.633 8.719-3.445 17.897-5.191 27.279-5.191 24.229 0 47.007 11.884 60.931 31.789 2.766 3.953 8.772 4.233 11.887.526 7.85-9.341 19.327-14.811 31.489-15.007 11.082-.199 21.684 4.106 29.774 12.067 7.79 7.665 12.433 18.129 12.898 28.946h-162.536c-7.444 0-13.5 6.056-13.5 13.5v22.987c0 9.756-7.938 17.693-17.694 17.693s-17.694-7.938-17.694-17.693c0-4.143-3.358-7.5-7.5-7.5s-7.5 3.357-7.5 7.5v82.5c0 13.892-11.302 25.193-25.194 25.193s-25.194-11.302-25.194-25.193v-105.486c0-7.444-6.056-13.5-13.5-13.5h-59.72c3.517-21.719 14.16-41.653 30.478-56.807zm338.919 86.807h-157.9c-4.142 0-7.5 3.357-7.5 7.5s3.358 7.5 7.5 7.5h149.226l-38.761 266.18c-2.307 15.86-16.132 27.82-32.158 27.82h-230.81c-16.026 0-29.851-11.96-32.158-27.821l-5.952-40.867c9.936 1.391 20.133 2.098 30.44 2.098 4.142 0 7.5-3.357 7.5-7.5s-3.358-7.5-7.5-7.5c-12.961 0-25.721-1.189-37.92-3.534-34.728-6.675-70.115-25.084-79.341-57.811-9.089-32.242 8.605-72.871 45.396-106.087l2.658 18.253c-22.224 22.708-41.342 56.372-33.622 83.775 6.368 22.602 32.222 37.644 56.803 44.667.031.009.061.017.092.025.011.003.022.007.034.01 30.099 7.685 66.864 7.596 96.246-1.407 48.901-14.985 77.627-53.719 93.819-86.766 4.117 2.743 8.74 4.779 13.695 5.949-22.136 45.034-59.685 81.839-103.11 95.155-8.385 2.571-17.382 4.539-26.741 5.849-4.102.574-6.962 4.365-6.388 8.467.577 4.128 4.432 6.953 8.467 6.389 10.141-1.419 19.918-3.56 29.058-6.362 50.001-15.332 91.492-57.384 115.003-108.863 20.264-3.159 35.82-20.728 35.82-41.864 0-23.364-19.008-42.372-42.372-42.372s-42.372 19.008-42.372 42.372c0 8.983 2.818 17.316 7.605 24.179-25.204 54.624-60.994 75.594-86.88 83.526-25.074 7.685-56.496 8.54-83.229 2.422l-25.979-178.382h47.655c4.142 0 7.5-3.357 7.5-7.5s-3.358-7.5-7.5-7.5h-56.324c-4.136 0-7.5-3.364-7.5-7.5s3.364-7.5 7.5-7.5h78.824v103.987c0 22.163 18.031 40.193 40.194 40.193s40.193-18.03 40.193-40.193v-55.02c5.104 3.298 11.179 5.213 17.694 5.213 18.027 0 32.694-14.666 32.694-32.693v-21.487h180.4c4.136 0 7.5 3.364 7.5 7.5s-3.364 7.5-7.499 7.5zm-384.489 97.392 13.298 91.302c-15.904-5.833-31.351-16.832-35.274-30.758-5.436-19.3 7.608-43.633 21.976-60.544zm206.643-14.138c0-15.093 12.279-27.372 27.372-27.372s27.372 12.279 27.372 27.372-12.279 27.372-27.372 27.372-27.372-12.279-27.372-27.372z"/></g></svg>