<svg id="Layer_1" enable-background="new 0 0 512 512" height="512" viewBox="0 0 512 512" width="512" xmlns="http://www.w3.org/2000/svg"><g><path d="m376 412v50h-240v-50c0-27.614 22.386-50 50-50h140c27.614 0 50 22.386 50 50z" fill="#ff5a58"/><path d="m326 352v10h-140v-10c0-16.569 13.431-30 30-30h80c16.569 0 30 13.431 30 30z" fill="#ff9346"/><path d="m396 482c0-11.046-8.954-20-20-20h-240c-11.046 0-20 8.954-20 20 0 11.046 8.954 20 20 20h240c11.046 0 20-8.954 20-20z" fill="#ff9346"/><path d="m296 50c0-22.091-17.909-40-40-40s-40 17.909-40 40c0 8.466 2.633 19.25 7.122 29.336 5.159 11.59 7.878 24.117 7.878 36.804v205.86h50v-205.86c0-12.687 2.719-25.214 7.878-36.804 4.489-10.086 7.122-20.87 7.122-29.336z" fill="#ffe6b4"/><g><path d="m397.21 460.79c-3.216-3.222-7.039-5.617-11.21-7.088v-41.702c0-29.676-21.661-54.374-50-59.151v-.849c0-22.056-17.944-40-40-40h-5v-195.86c0-11.268 2.36-22.282 7.014-32.737 5.075-11.403 7.986-23.577 7.986-33.403 0-27.57-22.43-50-50-50s-50 22.43-50 50c0 9.826 2.911 22 7.986 33.402 4.654 10.455 7.014 21.47 7.014 32.738v195.86h-5c-22.056 0-40 17.944-40 40v.849c-28.339 4.777-50 29.475-50 59.151v41.702c-4.171 1.47-7.994 3.866-11.21 7.088-5.67 5.66-8.79 13.2-8.79 21.21 0 8.02 3.12 15.55 8.79 21.21 5.66 5.67 13.2 8.79 21.21 8.79h75.71c5.52 0 10-4.49 10-10s-4.48-10-10-10h-75.71c-5.5-.01-9.99-4.5-10-10 .01-5.5 4.5-9.99 10-10h240c5.5.01 9.99 4.5 10 10-.01 5.5-4.5 9.99-10 10h-74.29c-5.51 0-10 4.49-10 10s4.49 10 10 10h74.29c8.02 0 15.55-3.12 21.21-8.79 5.67-5.66 8.79-13.19 8.79-21.21 0-8.01-3.12-15.55-8.79-21.21zm-141.21-440.79c16.542 0 30 13.458 30 30 0 7.02-2.339 16.466-6.258 25.269-5.801 13.032-8.742 26.783-8.742 40.871v195.86h-30v-195.86c0-14.088-2.941-27.839-8.742-40.871-3.919-8.803-6.258-18.249-6.258-25.269 0-16.542 13.458-30 30-30zm-40 312h80c11.028 0 20 8.972 20 20h-120c0-11.028 8.972-20 20-20zm150 120h-220v-40c0-22.056 17.944-40 40-40h140c22.056 0 40 17.944 40 40z"/><circle cx="256.71" cy="502" r="10"/></g></g></svg>